<svg id="Capa_1" data-name="Capa 1" xmlns="http://www.w3.org/2000/svg" viewBox="0 0 463.38 380.21"><defs><style>.cls-1{fill:#164194;}.cls-2{fill:#37abe2;}</style></defs><title>enchufe</title><path class="cls-1" d="M362.11,347A75.05,75.05,0,0,1,288,411.29H123.25a75.08,75.08,0,0,1-75-75V145.49a75.08,75.08,0,0,1,75-75H288a75.05,75.05,0,0,1,74.14,64.26H382a94.81,94.81,0,0,0-94.07-84H123.25a94.81,94.81,0,0,0-94.71,94.7V336.3A94.82,94.82,0,0,0,123.25,431H288A94.82,94.82,0,0,0,382,347Z" transform="translate(-28.54 -50.79)"/><path class="cls-1" d="M409.39,335.52l-.28,0a8.47,8.47,0,0,1-.88-.07l-1.11-.1A20.1,20.1,0,0,1,405,335c-.52-.11-.87-.19-1.21-.28a20.65,20.65,0,0,1-6.33-3.07l-.57-.44a20,20,0,0,1-2.21-2l-.39-.41a22,22,0,0,1-2.14-2.71,25.11,25.11,0,0,1-1.64-2.77l-.08-.1-.26-.06h-9.52l-8.4,0v-.53a68.15,68.15,0,0,1-9.74-1.92l-1.22-.32h0l-.5-.14c-.65-.19-1.28-.41-1.91-.63l-2.51-.87c-.55-.2-1.08-.43-1.6-.66l-2.38-1c-.73-.34-1.2-.58-1.66-.82l-2.36-1.19a8.58,8.58,0,0,1-.92-.55,65.74,65.74,0,0,1-6.1-3.86l-.56-.41c-2.18-1.6-4-3.11-5.78-4.66l-.54-.49c-1.91-1.76-3.53-3.38-5-5l-.56-.63c-1.6-1.78-3-3.45-4.3-5.15l-5.29-7.55c-.41-.57-.8-1.14-1.18-1.7a36.63,36.63,0,0,0-30-15.95l-8.31-.06V213.37l8.31-.06a36.67,36.67,0,0,0,30-16l6.65-9.48c1.12-1.46,2.51-3.14,4-4.78l.69-.78c1.51-1.63,3.12-3.24,4.8-4.79l.73-.67c1.76-1.57,3.63-3.09,5.59-4.52l.74-.55a67.38,67.38,0,0,1,6.15-3.89c.24-.16.47-.3.72-.44l2.55-1.3c.46-.24.93-.47,1.41-.7l2.63-1.12c.52-.22,1.05-.45,1.6-.66l2.51-.86c.57-.2,1.13-.4,1.71-.57l1.67-.46a70.5,70.5,0,0,1,10-2v-.53h17.91l.27-.06a.76.76,0,0,1,.08-.11,25.85,25.85,0,0,1,1.54-2.62l.28-.41h0a24,24,0,0,1,1.95-2.43l.32-.34a21.36,21.36,0,0,1,2.42-2.15l.51-.39a20.38,20.38,0,0,1,6.24-3,10.89,10.89,0,0,1,1.06-.26c.86-.19,1.56-.32,2.29-.41.46-.06.91-.1,1.36-.13l.44,0,.32,0h.47c.85,0,1.46,0,2.1,0a21.71,21.71,0,0,1,4.85.79,14.66,14.66,0,0,1,1.62.56c.47.16.94.34,1.41.53s1,.46,1.46.67l.74.41c.3.15.83.45,1.34.77s.94.62,1.39,1a17.25,17.25,0,0,1,1.45,1.14,21.7,21.7,0,0,1,2.09,2.09c.32.38.56.7.8,1a22.34,22.34,0,0,1,1.41,2.06c.2.34.38.68.55,1a22.29,22.29,0,0,1,1,2.27c.13.36.27.72.39,1.09a25.06,25.06,0,0,1,.69,2.55c.07.32.13.59.18.86a28,28,0,0,1,.41,3.53c.13,2.89.19,5.32.2,7.65,0,1.9,0,3.74,0,5.71h13.64c5.72,0,7.94,0,21.31.06s23.18,9.34,23.18,22c0,.61,0,1.18-.09,1.75s.09,1.14.09,1.75c0,12.68-9.75,21.93-23.18,22-12,.08-15,.09-19.64.07-3.38,0-5.48,0-8.65,0h-6.84l0,10.76-8.38.43h8.38l0,10.74h15.54c4.57,0,7.61,0,19.59.07,13.43.09,23.18,9.33,23.18,22,0,.65,0,1.22-.09,1.79s.09,1.2.09,1.75c0,12.65-9.75,21.89-23.18,22s-15.59.09-21.31.07l-13.64,0c0,2,0,3.81,0,5.71,0,2.34-.07,4.76-.2,7.66a28,28,0,0,1-.41,3.53l-.17.79a24.23,24.23,0,0,1-.7,2.62c-.12.36-.25.71-.39,1.06a22,22,0,0,1-1,2.19c-.23.45-.41.79-.61,1.12a20,20,0,0,1-1.33,2c-.3.42-.56.75-.83,1.07a21.6,21.6,0,0,1-2.18,2.2c-.36.32-.79.64-1.23,1-.63.45-1.08.78-1.56,1.08s-1.05.61-1.59.9c-.07,0-.38.22-.71.37s-.65.32-1.1.51c-.62.26-1.09.43-1.58.6a15.54,15.54,0,0,1-1.59.56,23,23,0,0,1-5.1.8c-.4,0-1,0-1.63,0h-.54ZM389.7,322.24l0,0ZM410,318.77h.59a7,7,0,0,0,1.57-.21l2.83-1.46a3.92,3.92,0,0,0,.54-.51c.26-.38.37-.52.46-.67.21-.43.3-.62.38-.81a8.62,8.62,0,0,0,.32-1.13l.11-.45a11.16,11.16,0,0,0,.12-1.19c.13-2.62.18-4.83.19-6.94s0-4,0-6.23c0-1.58-.05-3.26-.06-5.16l0-2.59,0-8.4,30.55,0c5.67,0,7.88,0,21.15-.06,3,0,6.55-.95,6.55-5.24L475,276l.11-1.42c0-4.67-3.52-5.59-6.51-5.61-11.89-.09-14.91-.09-19.49-.07H440.5l-23.6,0L416.84,241l.06-27.49,23.6,0c3.13,0,5.2,0,8.59,0,4.64,0,7.65,0,19.54-.07,3,0,6.55-.95,6.55-5.24l-.15-1.79.11-1.43c0-4.62-3.52-5.54-6.51-5.56-13.27-.09-15.48-.09-21.15-.07H416.93l.05-11c0-1.89,0-3.57.06-5.15,0-2.19,0-4.17,0-6.24s-.06-4.31-.19-6.94a10.06,10.06,0,0,0-.16-1.37l-.08-.35c0-.2-.12-.48-.21-.75a6.3,6.3,0,0,0-.36-.85,4.1,4.1,0,0,0-.42-.68l6.35-5.49-6.66,5.08h0l-.31-.29-1.69-1.05h0l-1.29-.48a5.57,5.57,0,0,0-1.32-.19h-.88l-.35,0a6.47,6.47,0,0,0-.9.14,3.69,3.69,0,0,0-1.39.6,6.12,6.12,0,0,0-.56.51,6,6,0,0,0-.66.8l-.1.16a7.61,7.61,0,0,0-.55,1l-2,3c-3.5,5-9.95,5.95-11.84,6.13L389,176h-8.38c-1.31,0-2.58.05-3.84.14a51.12,51.12,0,0,0-9.87,1.69l-1.32.34c-.4.12-.78.26-1.16.4l-2.18.74c-.26.1-.56.23-.85.36l-5.55,2.67a51.55,51.55,0,0,0-4.79,3l-.59.44c-1.52,1.12-3,2.28-4.3,3.48l-.63.57c-1.3,1.2-2.57,2.47-3.77,3.77l-.39.44c-1.36,1.51-2.49,2.87-3.55,4.24l-1.59,2.13-7.1-4.47,6.82,4.86-1.35,2-7.31-4.15,7,4.62L332,206.76a53.32,53.32,0,0,1-35.44,22.58v23.74A53.29,53.29,0,0,1,332,275.65l2.33,3.47-6.64,5.12,7-4.65.63.93-6.5,5.34,6.89-4.75.32.44-6.64,5.1,7-4.65.94,1.28-6.43,5.39,6.74-5,.28.35c1.09,1.41,2.22,2.77,3.42,4.1l.55.62q1.8,2,3.81,3.8l.61.56a54.53,54.53,0,0,0,4.28,3.45l.34.26a53.36,53.36,0,0,0,5,3.19l5.57,2.68c.29.13.59.26.9.37l2.13.73c.36.13.72.26,1.09.37l1.37.36a51.28,51.28,0,0,0,9.91,1.7c1.25.08,2.52.14,3.82.14l10.93.07c1.89.18,8.34,1.15,11.85,6.14l2,3.05a7.14,7.14,0,0,0,.5.87l.32.48h0s.19.22.38.43a5,5,0,0,0,.57.52l.33.26a4.4,4.4,0,0,0,.91.37l.75.14Zm-53.36-18.26,0,0Zm8.95-122.29-.08,0Zm.15-.05-.08,0h0Zm47.64-13.86.41.21,2.75-8Zm0,0h0Zm-23.61-4.13,0,0Z" transform="translate(-28.54 -50.79)"/><polygon class="cls-2" points="174.56 68.09 95.32 235.07 159.42 210.2 150.6 317.29 229.85 145.31 167.08 171.33 174.56 68.09"/></svg>